# xmcd
#
# Track frame offsets:
#	150
#	17609
#	23801
#	44350
#	62720
#	83212
#	105281
#	125038
#	134876
#	149984
#	168379
#	185658
#	205593
#
# Disc length: 3270 seconds
#
# Revision: 2
# Processed by: cddbd v1.5.1PL0 Copyright (c) Steve Scherf et al.
# Submitted via: audiograbber 1.83.01
#
DISCID=bf0cc40d
DTITLE=Tigerbeat - 13 Songs
DYEAR=2003
DGENRE=Blues
TTITLE0=Doin' Time
TTITLE1=Intro 2
TTITLE2=Heartbreak Kid
TTITLE3=What' Cha Gonna Do
TTITLE4=Beat me Till I Understand
TTITLE5=If For The One Time We Dont F.
TTITLE6=All That Glitter's Not Gold
TTITLE7=Come On
TTITLE8=Lowdown
TTITLE9=Re-Release
TTITLE10=Lookin' Good
TTITLE11=Yours Sincerely
TTITLE12=Alright
EXTD=
EXTT0=
EXTT1=
EXTT2=
EXTT3=
EXTT4=
EXTT5=
EXTT6=
EXTT7=
EXTT8=
EXTT9=
EXTT10=
EXTT11=
EXTT12=
PLAYORDER=
